M48
;Layer_Color=9474304
;FILE_FORMAT=2:5
INCH,LZ
;TYPE=PLATED
T1F00S00C0.01181
;TYPE=NON_PLATED
T2F00S00C0.01968
%
T01
X00445Y0048398
X0064173Y0035342
X0074104Y0032389
X0109376Y004417
X0124409Y007441
X0125022Y0081533
X0032605Y0083368
X0032467Y0075809
X0043384Y0107972
X0048397Y0112981
X0075947Y0125022
X0099389Y0120255
X0107972Y0114097
X0113311Y0109376
T02
X0032047Y0052581
X0030842Y0055491
X0029636Y0058401
X0028431Y006131
X0027226Y006422
X0052666Y0064531
X0053871Y0061621
X005146Y006744
X0050255Y007035
X004905Y007326
X008422Y004905
X008713Y0050255
X009004Y005146
X009295Y0052666
X009586Y0053871
X009617Y0028431
X009326Y0027226
X009908Y0029636
X0101989Y0030842
X0104899Y0032047
X0108431Y008422
X0107225Y008713
X010602Y009004
X0104815Y009295
X0103609Y009586
X0129049Y009617
X0130255Y009326
X0127844Y009908
X0126639Y0101989
X0125433Y0104899
X007326Y0108431
X007035Y0107225
X006744Y010602
X0064531Y0104815
X0061621Y0103609
X006131Y0129049
X0058401Y0127844
X0055491Y0126639
X0052581Y0125433
X006422Y0130255
M30
