G04*
G04 #@! TF.GenerationSoftware,Altium Limited,Altium Designer,22.2.1 (43)*
G04*
G04 Layer_Color=16711935*
%FSLAX25Y25*%
%MOIN*%
G70*
G04*
G04 #@! TF.SameCoordinates,70B15B9A-0B0E-40B4-BC6F-C93E4DF4F8A9*
G04*
G04*
G04 #@! TF.FilePolarity,Negative*
G04*
G01*
G75*
%ADD48C,0.02769*%
D48*
X67440Y106020D02*
D03*
X70350Y107225D02*
D03*
X64531Y104815D02*
D03*
X61621Y103609D02*
D03*
X73260Y108431D02*
D03*
X51460Y67440D02*
D03*
X50255Y70350D02*
D03*
X52666Y64531D02*
D03*
X53871Y61621D02*
D03*
X49050Y73260D02*
D03*
X106020Y90040D02*
D03*
X107225Y87130D02*
D03*
X104815Y92950D02*
D03*
X103609Y95860D02*
D03*
X108431Y84220D02*
D03*
X84220Y49050D02*
D03*
X95860Y53871D02*
D03*
X92950Y52666D02*
D03*
X87130Y50255D02*
D03*
X90040Y51460D02*
D03*
X61310Y129049D02*
D03*
X58401Y127844D02*
D03*
X55491Y126639D02*
D03*
X52581Y125433D02*
D03*
X64220Y130255D02*
D03*
X28431Y61310D02*
D03*
X29636Y58401D02*
D03*
X30842Y55491D02*
D03*
X32047Y52581D02*
D03*
X27226Y64220D02*
D03*
X129049Y96170D02*
D03*
X127844Y99080D02*
D03*
X126639Y101989D02*
D03*
X125433Y104899D02*
D03*
X130255Y93260D02*
D03*
X93260Y27226D02*
D03*
X104899Y32047D02*
D03*
X101989Y30842D02*
D03*
X99080Y29636D02*
D03*
X96170Y28431D02*
D03*
M02*
