G04*
G04 #@! TF.GenerationSoftware,Altium Limited,Altium Designer,22.2.1 (43)*
G04*
G04 Layer_Physical_Order=1*
G04 Layer_Color=255*
%FSLAX25Y25*%
%MOIN*%
G70*
G04*
G04 #@! TF.SameCoordinates,70B15B9A-0B0E-40B4-BC6F-C93E4DF4F8A9*
G04*
G04*
G04 #@! TF.FilePolarity,Positive*
G04*
G01*
G75*
%ADD10C,0.03937*%
%ADD11C,0.07480*%
%ADD12C,0.01968*%
%ADD13P,0.05568X4X360.0*%
G04:AMPARAMS|DCode=14|XSize=70.87mil|YSize=39.37mil|CornerRadius=0mil|HoleSize=0mil|Usage=FLASHONLY|Rotation=314.979|XOffset=0mil|YOffset=0mil|HoleType=Round|Shape=Rectangle|*
%AMROTATEDRECTD14*
4,1,4,-0.03897,0.01115,-0.01112,0.03898,0.03897,-0.01115,0.01112,-0.03898,-0.03897,0.01115,0.0*
%
%ADD14ROTATEDRECTD14*%

G04:AMPARAMS|DCode=15|XSize=35.43mil|YSize=39.37mil|CornerRadius=0mil|HoleSize=0mil|Usage=FLASHONLY|Rotation=157.500|XOffset=0mil|YOffset=0mil|HoleType=Round|Shape=Rectangle|*
%AMROTATEDRECTD15*
4,1,4,0.02390,0.01141,0.00884,-0.02497,-0.02390,-0.01141,-0.00884,0.02497,0.02390,0.01141,0.0*
%
%ADD15ROTATEDRECTD15*%

%ADD16R,0.03937X0.03937*%
%ADD17R,0.07087X0.03937*%
%ADD18P,0.05568X4X90.0*%
G04:AMPARAMS|DCode=19|XSize=70.87mil|YSize=39.37mil|CornerRadius=0mil|HoleSize=0mil|Usage=FLASHONLY|Rotation=44.979|XOffset=0mil|YOffset=0mil|HoleType=Round|Shape=Rectangle|*
%AMROTATEDRECTD19*
4,1,4,-0.01115,-0.03897,-0.03898,-0.01112,0.01115,0.03897,0.03898,0.01112,-0.01115,-0.03897,0.0*
%
%ADD19ROTATEDRECTD19*%

%ADD20R,0.03937X0.03937*%
%ADD21R,0.03937X0.07087*%
G04:AMPARAMS|DCode=22|XSize=35.43mil|YSize=39.37mil|CornerRadius=0mil|HoleSize=0mil|Usage=FLASHONLY|Rotation=157.500|XOffset=0mil|YOffset=0mil|HoleType=Round|Shape=Rectangle|*
%AMROTATEDRECTD22*
4,1,4,0.02390,0.01141,0.00884,-0.02497,-0.02390,-0.01141,-0.00884,0.02497,0.02390,0.01141,0.0*
%
%ADD22ROTATEDRECTD22*%

G04:AMPARAMS|DCode=23|XSize=118.11mil|YSize=59.06mil|CornerRadius=0mil|HoleSize=0mil|Usage=FLASHONLY|Rotation=22.500|XOffset=0mil|YOffset=0mil|HoleType=Round|Shape=Round|*
%AMOVALD23*
21,1,0.05906,0.05906,0.00000,0.00000,22.5*
1,1,0.05906,-0.02728,-0.01130*
1,1,0.05906,0.02728,0.01130*
%
%ADD23OVALD23*%

G04:AMPARAMS|DCode=24|XSize=118.11mil|YSize=59.06mil|CornerRadius=0mil|HoleSize=0mil|Usage=FLASHONLY|Rotation=67.500|XOffset=0mil|YOffset=0mil|HoleType=Round|Shape=Round|*
%AMOVALD24*
21,1,0.05906,0.05906,0.00000,0.00000,67.5*
1,1,0.05906,-0.01130,-0.02728*
1,1,0.05906,0.01130,0.02728*
%
%ADD24OVALD24*%

%ADD25C,0.01968*%
%ADD26C,0.02756*%
D10*
X11811Y145669D02*
D03*
X145669Y11811D02*
D03*
X11811D02*
D03*
D11*
X115049Y50076D02*
G03*
X122301Y63171I-36309J28665D01*
G01*
X124400Y71312D02*
G03*
X124611Y72757I-45660J7428D01*
G01*
X105812Y41229D02*
G03*
X109421Y44118I-27072J37511D01*
G01*
X70058Y33302D02*
G03*
X72757Y32869I8682J45438D01*
G01*
X42432Y107405D02*
G03*
X37651Y99993I36309J-28665D01*
G01*
X107405Y115049D02*
G03*
X104935Y116869I-28665J-36309D01*
G01*
X32573Y75815D02*
G03*
X34658Y64714I46167J2925D01*
G01*
X75815Y124908D02*
G03*
X64714Y122822I2925J-46167D01*
G01*
X124908Y81665D02*
G03*
X122822Y92766I-46167J-2925D01*
G01*
X81665Y32573D02*
G03*
X98629Y36974I-2925J46167D01*
G01*
X38206Y56447D02*
G03*
X44118Y48059I40534J22294D01*
G01*
X91638Y123166D02*
G03*
X84723Y124611I-12898J-44425D01*
G01*
X34315Y91638D02*
G03*
X32869Y84723I44425J-12898D01*
G01*
X56447Y119274D02*
G03*
X48059Y113362I22294J-40534D01*
G01*
X119274Y101034D02*
G03*
X113362Y109421I-40534J-22294D01*
G01*
X50076Y42432D02*
G03*
X57487Y37651I28665J36309D01*
G01*
D12*
X86342Y32457D02*
G03*
X96217Y36547I0J13966D01*
G01*
X93307Y122138D02*
G03*
X87824Y124409I-5483J-5483D01*
G01*
X52860Y40028D02*
G03*
X58353Y37753I5493J5493D01*
G01*
X117457Y52871D02*
G03*
X120933Y61263I-8393J8393D01*
G01*
X81509Y32457D02*
X86342D01*
X83071Y124409D02*
X87824D01*
X49506Y43382D02*
X52860Y40028D01*
X114095Y49509D02*
X117457Y52871D01*
D13*
X107972Y114097D02*
D03*
X49506Y43382D02*
D03*
D14*
X112981Y109084D02*
D03*
X44500Y48398D02*
D03*
D15*
X99127Y119728D02*
D03*
X93307Y122138D02*
D03*
D16*
X83071Y124409D02*
D03*
X74410Y32677D02*
D03*
D17*
X75984Y124409D02*
D03*
X81496Y32677D02*
D03*
D18*
X43384Y107972D02*
D03*
X114095Y49509D02*
D03*
D19*
X48397Y112981D02*
D03*
X109084Y44498D02*
D03*
D20*
X33071Y83071D02*
D03*
X124409Y74410D02*
D03*
D21*
X33071Y75984D02*
D03*
X124409Y81496D02*
D03*
D22*
X64173Y35342D02*
D03*
X58353Y37753D02*
D03*
D23*
X96217Y36547D02*
D03*
D24*
X120933Y61263D02*
D03*
D25*
X67440Y106020D02*
D03*
X70350Y107225D02*
D03*
X64531Y104815D02*
D03*
X61621Y103609D02*
D03*
X73260Y108431D02*
D03*
X51460Y67440D02*
D03*
X50255Y70350D02*
D03*
X52666Y64531D02*
D03*
X53871Y61621D02*
D03*
X49050Y73260D02*
D03*
X106020Y90040D02*
D03*
X107225Y87130D02*
D03*
X104815Y92950D02*
D03*
X103609Y95860D02*
D03*
X108431Y84220D02*
D03*
X84220Y49050D02*
D03*
X95860Y53871D02*
D03*
X92950Y52666D02*
D03*
X87130Y50255D02*
D03*
X90040Y51460D02*
D03*
X61310Y129049D02*
D03*
X58401Y127844D02*
D03*
X55491Y126639D02*
D03*
X52581Y125433D02*
D03*
X64220Y130255D02*
D03*
X28431Y61310D02*
D03*
X29636Y58401D02*
D03*
X30842Y55491D02*
D03*
X32047Y52581D02*
D03*
X27226Y64220D02*
D03*
X129049Y96170D02*
D03*
X127844Y99080D02*
D03*
X126639Y101989D02*
D03*
X125433Y104899D02*
D03*
X130255Y93260D02*
D03*
X93260Y27226D02*
D03*
X104899Y32047D02*
D03*
X101989Y30842D02*
D03*
X99080Y29636D02*
D03*
X96170Y28431D02*
D03*
D26*
X124409Y74410D02*
D03*
X113311Y109376D02*
D03*
X74104Y32389D02*
D03*
X109376Y44170D02*
D03*
X32467Y75809D02*
D03*
X32605Y83368D02*
D03*
X75947Y125022D02*
D03*
X99389Y120255D02*
D03*
X107972Y114097D02*
D03*
X125022Y81533D02*
D03*
X64173Y35342D02*
D03*
X48397Y112981D02*
D03*
X43384Y107972D02*
D03*
X44500Y48398D02*
D03*
M02*
